ply
format ascii 1.0
comment VCGLIB generated
element vertex 46
property float x
property float y
property float z
property float nx
property float ny
property float nz
element face 60
property list uchar int vertex_indices
end_header
-4.5 -6.000002 2.145687e-07 0 -4.371138e-08 1 
-4.5 -4.5 2.801359e-07 0.4364358 0.2182179 0.8728716 
-6 -4.5 2.801359e-07 0 -4.371138e-08 1 
-6 -6.000002 2.145687e-07 0 -4.371139e-08 1 
-1.5 -6.000002 2.145687e-07 0 -4.371138e-08 1 
-1.5 -4.5 2.801359e-07 -0.1690309 0.5070925 0.8451543 
-4.768372e-07 -6.000002 2.145687e-07 0 -4.371139e-08 1 
-4.768372e-07 -4.5 2.801359e-07 0 -4.371139e-08 1 
-4.5 -2.084321e-14 4.768372e-07 0 -4.37114e-08 1 
-6 -2.084321e-14 4.768372e-07 0 -4.37114e-08 1 
-6 -1.5 4.112701e-07 0 -4.371139e-08 1 
-4.5 -1.5 4.112701e-07 0.1690308 -0.5070925 0.8451543 
-1.5 -2.084321e-14 4.768372e-07 0 -4.37114e-08 1 
-1.5 -1.5 4.112701e-07 -0.4364357 -0.2182179 0.8728716 
-4.768372e-07 -2.084321e-14 4.768372e-07 0 -4.37114e-08 1 
-4.768372e-07 -1.5 4.112701e-07 0 -4.371139e-08 1 
-4.5 -1.5 -0.4999992 0.6666666 -0.3333333 0.6666667 
-3 -1.5 -0.4999992 0 -0.5547001 0.8320504 
-1.5 -1.5 -0.4999992 -0.4082482 -0.8164965 0.4082486 
-1.5 -4.5 -0.4999994 -0.6666667 0.3333333 0.6666667 
-3 -4.5 -0.4999994 0 0.5547002 0.8320503 
-4.5 -4.5 -0.4999994 0.4082483 0.8164966 0.4082483 
-1.601 -4.399 4.335624e-07 1.278025e-07 -2.873344e-07 1 
-1.601 -1.601 5.223392e-07 2.958955e-07 1.027684e-07 1 
-4.399 -1.601 5.223392e-07 -1.082558e-07 1.847827e-07 1 
-4.399001 -4.399 4.335624e-07 -2.942497e-07 -1.923051e-07 1 
-4.500001 -4.499999 3.658176e-07 -2.119066e-07 -4.58835e-07 1 
-1.5 -4.5 3.658176e-07 3.945273e-07 -2.458299e-07 1 
-1.5 -1.5 4.708747e-07 1.815231e-07 3.280268e-07 1 
-4.5 -1.5 4.708747e-07 -3.923329e-07 1.476007e-07 1 
-4.468853 -1.751132 -0.3880315 0.8679782 0.4455298 -0.219356 
-4.468853 -1.751132 -0.1615886 0.7841033 0.2809875 0.5533789 
-4.468853 -4.247145 -0.1615888 0.8763311 -0.4301439 0.2168411 
-4.468853 -4.247145 -0.3880318 0.7899576 -0.2724209 -0.5493213 
-4.5 -1.734504 -0.4057944 0.6000952 0.3621657 -0.7132474 
-4.5 -4.265495 -0.4057946 0.6164054 -0.7031379 -0.3544597 
-4.5 -4.265495 -0.1438263 0.611415 -0.3515693 0.7089222 
-4.5 -1.734504 -0.1438261 0.5900528 0.7243313 0.3566256 
-1.531147 -4.247145 -0.3880318 -0.8763301 -0.4301464 -0.2168402 
-1.531147 -4.247145 -0.1615888 -0.789954 -0.2724228 0.5493255 
-1.531147 -1.751131 -0.1615887 -0.8679727 0.4455386 0.21936 
-1.531147 -1.751131 -0.3880316 -0.7841015 0.2809921 -0.5533789 
-1.5 -4.265495 -0.4057945 -0.6114154 -0.3515714 -0.7089208 
-1.5 -1.734504 -0.4057945 -0.5900398 0.7243418 -0.3566259 
-1.5 -1.734504 -0.1438262 -0.6000853 0.3621706 0.7132533 
-1.5 -4.265495 -0.1438263 -0.6164003 -0.7031419 0.3544603 
3 0 1 2 
3 0 2 3 
3 4 5 1 
3 4 1 0 
3 6 7 5 
3 6 5 4 
3 8 9 10 
3 8 10 11 
3 12 8 11 
3 12 11 13 
3 14 12 13 
3 14 13 15 
3 11 10 2 
3 11 2 1 
3 15 13 5 
3 15 5 7 
3 11 16 17 
3 11 17 18 
3 11 18 13 
3 13 18 19 
3 13 19 5 
3 5 19 20 
3 5 20 21 
3 5 21 1 
3 1 21 16 
3 1 16 11 
3 20 17 16 
3 20 16 21 
3 22 23 24 
3 22 24 25 
3 19 18 17 
3 19 17 20 
3 26 27 22 
3 26 22 25 
3 27 28 23 
3 27 23 22 
3 28 29 24 
3 28 24 23 
3 29 26 25 
3 29 25 24 
3 30 31 32 
3 30 32 33 
3 34 30 33 
3 34 33 35 
3 35 33 32 
3 35 32 36 
3 36 32 31 
3 36 31 37 
3 37 31 30 
3 37 30 34 
3 38 39 40 
3 38 40 41 
3 42 38 41 
3 42 41 43 
3 43 41 40 
3 43 40 44 
3 44 40 39 
3 44 39 45 
3 45 39 38 
3 45 38 42 
